<mxfile host="65bd71144e">
    <diagram id="23TSa5g-n51fq8hPKHRI" name="ページ1">
        <mxGraphModel dx="1305" dy="3307" grid="1" gridSize="10" guides="1" tooltips="1" connect="1" arrows="1" fold="1" page="1" pageScale="1" pageWidth="1920" pageHeight="1200" math="0" shadow="0">
            <root>
                <mxCell id="0"/>
                <mxCell id="1" parent="0"/>
                <mxCell id="19" style="edgeStyle=none;html=1;exitX=1;exitY=0.5;exitDx=0;exitDy=0;entryX=0;entryY=0.5;entryDx=0;entryDy=0;entryPerimeter=0;fontSize=40;strokeWidth=10;" edge="1" parent="1" source="6" target="13">
                    <mxGeometry relative="1" as="geometry"/>
                </mxCell>
                <mxCell id="6" value="Build Models" style="rounded=0;whiteSpace=wrap;html=1;fontSize=40;strokeWidth=9;fillColor=#fff2cc;strokeColor=#d6b656;" vertex="1" parent="1">
                    <mxGeometry x="760" y="395" width="200" height="120" as="geometry"/>
                </mxCell>
                <mxCell id="15" style="edgeStyle=none;html=1;exitX=1;exitY=0.5;exitDx=0;exitDy=0;exitPerimeter=0;entryX=0;entryY=0;entryDx=0;entryDy=0;fontSize=40;strokeWidth=10;" edge="1" parent="1" source="9" target="6">
                    <mxGeometry relative="1" as="geometry"/>
                </mxCell>
                <mxCell id="9" value="&lt;span&gt;Number of function calls for small runs&lt;/span&gt;" style="shape=tape;whiteSpace=wrap;html=1;fontSize=40;strokeWidth=9;size=0.14814814814814814;fillColor=#dae8fc;strokeColor=#6c8ebf;" vertex="1" parent="1">
                    <mxGeometry x="20" y="40" width="420" height="270" as="geometry"/>
                </mxCell>
                <mxCell id="16" style="edgeStyle=none;html=1;exitX=1;exitY=0.5;exitDx=0;exitDy=0;exitPerimeter=0;entryX=0;entryY=0.5;entryDx=0;entryDy=0;fontSize=40;strokeWidth=10;" edge="1" parent="1" source="10" target="6">
                    <mxGeometry relative="1" as="geometry"/>
                </mxCell>
                <mxCell id="10" value="&lt;span&gt;Number of function calls for small runs&lt;/span&gt;" style="shape=tape;whiteSpace=wrap;html=1;fontSize=40;strokeWidth=9;size=0.14814814814814814;fillColor=#dae8fc;strokeColor=#6c8ebf;" vertex="1" parent="1">
                    <mxGeometry x="20" y="320" width="420" height="270" as="geometry"/>
                </mxCell>
                <mxCell id="17" style="edgeStyle=none;html=1;exitX=1;exitY=0.5;exitDx=0;exitDy=0;exitPerimeter=0;entryX=0;entryY=1;entryDx=0;entryDy=0;fontSize=40;strokeWidth=10;" edge="1" parent="1" source="11" target="6">
                    <mxGeometry relative="1" as="geometry"/>
                </mxCell>
                <mxCell id="11" value="&lt;span&gt;Number of function calls for small runs&lt;/span&gt;" style="shape=tape;whiteSpace=wrap;html=1;fontSize=40;strokeWidth=9;size=0.14814814814814814;fillColor=#dae8fc;strokeColor=#6c8ebf;" vertex="1" parent="1">
                    <mxGeometry x="20" y="600" width="420" height="270" as="geometry"/>
                </mxCell>
                <mxCell id="13" value="Predicted Number of function calls for large runs" style="shape=tape;whiteSpace=wrap;html=1;fontSize=40;strokeWidth=9;size=0.14814814814814814;fillColor=#f8cecc;strokeColor=#b85450;" vertex="1" parent="1">
                    <mxGeometry x="1410" y="320" width="500" height="270" as="geometry"/>
                </mxCell>
                <mxCell id="18" value="&lt;span&gt;Predict Number of function calls&lt;/span&gt;" style="whiteSpace=wrap;html=1;fontSize=40;strokeWidth=9;fillColor=#d5e8d4;strokeColor=#82b366;" vertex="1" parent="1">
                    <mxGeometry x="1040" y="250" width="310" height="180" as="geometry"/>
                </mxCell>
                <mxCell id="20" value="Step1.&amp;nbsp;&lt;br&gt;Collecting profiles in small-scale environments" style="whiteSpace=wrap;html=1;fontSize=40;strokeWidth=9;" vertex="1" parent="1">
                    <mxGeometry x="40" y="920" width="450" height="240" as="geometry"/>
                </mxCell>
                <mxCell id="21" value="Step2.&amp;nbsp;&lt;br&gt;Build models using collected profiles as training data" style="whiteSpace=wrap;html=1;fontSize=40;strokeWidth=9;" vertex="1" parent="1">
                    <mxGeometry x="560" y="920" width="450" height="240" as="geometry"/>
                </mxCell>
                <mxCell id="22" value="&lt;span&gt;Step3.&amp;nbsp;&lt;/span&gt;&lt;br&gt;Predicting the number of function calls at a large scale using the built model" style="rounded=0;whiteSpace=wrap;html=1;fontSize=40;strokeWidth=9;" vertex="1" parent="1">
                    <mxGeometry x="1080" y="920" width="750" height="240" as="geometry"/>
                </mxCell>
            </root>
        </mxGraphModel>
    </diagram>
</mxfile>